<?xml version="1.0" encoding="UTF-8" standalone="no"?>
<!-- Generator: Adobe Illustrator 12.0.1, SVG Export Plug-In . SVG Version: 6.00 Build 51448)  -->

<svg
   version="1.0"
   id="Layer_1"
   width="500"
   height="203"
   viewBox="0 0 499.99999 202.99999"
   overflow="visible"
   enable-background="new 0 0 436.505 152.503"
   xml:space="preserve"
   sodipodi:docname="logo.svg"
   inkscape:version="1.4.4 (dcaf3e7, 2026-05-05)"
   xmlns:inkscape="http://www.inkscape.org/namespaces/inkscape"
   xmlns:sodipodi="http://sodipodi.sourceforge.net/DTD/sodipodi-0.dtd"
   xmlns:xlink="http://www.w3.org/1999/xlink"
   xmlns="http://www.w3.org/2000/svg"
   xmlns:svg="http://www.w3.org/2000/svg"><defs
   id="defs7"><linearGradient
   id="linearGradient33"
   inkscape:collect="always"><stop
     style="stop-color:#686868;stop-opacity:1;"
     offset="0"
     id="stop33" /><stop
     style="stop-color:#515151;stop-opacity:1;"
     offset="1"
     id="stop34" /></linearGradient><linearGradient
   id="linearGradient23"
   inkscape:collect="always"><stop
     style="stop-color:#556fff;stop-opacity:1;"
     offset="0"
     id="stop23" /><stop
     style="stop-color:#55ffdd;stop-opacity:1;"
     offset="1"
     id="stop24" /></linearGradient>

















	<linearGradient
   inkscape:collect="always"
   xlink:href="#linearGradient23"
   id="linearGradient24-2"
   x1="-1.61845"
   y1="76.251953"
   x2="438.9454"
   y2="76.251953"
   gradientUnits="userSpaceOnUse"
   gradientTransform="translate(0.44608772)" /><radialGradient
   inkscape:collect="always"
   xlink:href="#linearGradient33"
   id="radialGradient34-3"
   cx="420.73083"
   cy="-35.568977"
   fx="420.73083"
   fy="-35.568977"
   r="250.93925"
   gradientTransform="matrix(0.99999998,0,0,0.34876765,0.44608775,56.344295)"
   gradientUnits="userSpaceOnUse" /></defs><sodipodi:namedview
   id="namedview7"
   pagecolor="#ffffff"
   bordercolor="#000000"
   borderopacity="0.25"
   inkscape:showpageshadow="2"
   inkscape:pageopacity="0.0"
   inkscape:pagecheckerboard="0"
   inkscape:deskcolor="#d1d1d1"
   inkscape:zoom="1.2846759"
   inkscape:cx="226.12707"
   inkscape:cy="85.62471"
   inkscape:window-width="1728"
   inkscape:window-height="1051"
   inkscape:window-x="0"
   inkscape:window-y="33"
   inkscape:window-maximized="0"
   inkscape:current-layer="Layer_1"
   showgrid="false" />

<path
   id="path6"
   d="m 387.12884,31.553912 c 18.20484,0 29.31794,11.457287 29.31794,29.999858 0,19.016495 -11.58441,30.945426 -30.02718,30.945426 -18.20637,0 -29.43692,-11.457294 -29.43692,-29.881758 6.7e-4,-19.135356 11.5867,-31.063526 30.14616,-31.063526 z m -0.35615,46.298513 c 6.97582,0 11.11387,-5.787697 11.11387,-15.827018 0,-9.920455 -4.01985,-15.826251 -10.99337,-15.826251 -7.21223,0 -11.35104,5.788457 -11.35104,15.826251 6.6e-4,10.040082 4.13881,15.827018 11.23054,15.827018 z m -91.86155,23.031915 c 6.38477,3.30682 12.76802,4.84137 19.50589,4.84137 11.93904,0 17.02275,-4.84137 17.02275,-16.416754 0,-0.1181 0,-0.2362 0,-0.35431 -3.54625,1.77075 -7.09325,2.48011 -11.82082,2.48011 -15.95964,0 -26.12784,-10.511714 -26.12784,-27.164674 0,-20.670661 15.01473,-32.361866 41.61236,-32.361866 7.80326,0 15.01474,0.825942 23.76291,2.597453 l -6.23377,13.119839 c -4.8473,-0.944808 -0.38818,-0.126479 -4.05112,-0.480784 v 1.890371 l 0.23566,7.675786 0.11744,9.921976 c 0.11822,2.479353 0.11822,4.960227 0.23719,7.440348 0,2.243908 0,3.307576 0,4.960988 0,15.590813 -1.3003,22.913057 -5.20117,28.936187 -5.67476,8.85908 -15.48681,13.2288 -29.43615,13.2288 -7.09326,0 -13.23932,-1.06291 -19.62409,-3.54378 v -16.77106 z m 36.17478,-54.33088 c -0.23642,0 -0.47207,0 -0.59028,0 h -1.30106 c -3.54548,-0.118099 -7.68277,0.825942 -10.52129,2.597453 -4.37294,2.480874 -6.62043,6.969465 -6.62043,13.346898 0,9.095273 4.49344,14.291706 12.5316,14.291706 2.48238,0 4.49268,-0.473165 6.85609,-1.181007 v -1.299867 -4.959467 c 0,-2.125815 -0.11745,-4.489351 -0.11745,-6.968704 l -0.11744,-8.385149 -0.11898,-6.023896 V 46.55346 Z M 234.16353,35.923635 c 10.75695,-2.834412 19.62333,-4.132757 28.60792,-4.132757 9.33922,0 16.07785,2.125048 20.09846,6.259333 3.78266,3.89656 4.96399,8.148184 4.96399,17.244225 v 35.66793 H 269.6283 V 56.003039 c 0,-6.967944 -2.36417,-9.567678 -8.86563,-9.567678 -2.48237,0 -4.72832,0.236199 -8.39431,1.299106 v 43.227899 h -18.20483 z m -53.19831,1.299107 c 8.0397,-3.77846 15.72324,-5.431864 24.11679,-5.431864 9.33921,0 15.48604,2.479346 18.20559,7.322241 1.53595,2.716313 2.00878,6.259334 2.00878,13.819302 v 36.967035 c -8.1579,1.18101 -18.44202,2.00847 -26.00734,2.00847 -15.24964,0 -22.10724,-5.316814 -22.10724,-17.126885 0,-12.756395 9.1028,-18.661431 31.44645,-20.551801 v -4.015419 c 0,-3.306823 -1.65491,-4.48707 -6.2658,-4.48707 -6.73787,0 -14.30396,1.889617 -21.39799,5.551499 V 37.222742 Z m 28.49049,28.93695 c -12.05877,1.181007 -15.95964,3.071385 -15.95964,7.795407 0,3.543021 2.24672,5.196433 7.21147,5.196433 2.71955,0 5.20116,-0.235439 8.74817,-0.825942 z m -39.4869,-33.070469 v 42.164222 c 0,14.527911 -1.06388,21.495851 -4.2555,27.519745 -2.95596,5.78846 -6.85761,9.44882 -14.89577,13.465 l -16.90531,-8.03161 c 8.03893,-3.77922 11.9398,-7.08527 14.42218,-12.165894 2.60134,-5.19643 3.42956,-11.220324 3.42956,-27.046575 V 33.089223 Z M 151.76397,5.0970752 h 18.20484 V 23.758505 h -18.20484 z m -28.96255,-0.09676 h 18.2056 V 89.191616 c -9.33922,1.77151 -16.19606,2.48011 -23.64318,2.48011 -22.225444,-6.7e-4 -33.810617,-10.03856 -33.810617,-29.291254 0,-18.543331 12.295186,-30.589594 31.327477,-30.589594 2.95521,0 5.20117,0.235438 7.92072,0.944041 z m 0,42.3790908 c -2.12775,-0.707842 -3.90087,-0.944041 -6.14683,-0.944041 -9.22101,0 -14.54114,5.669591 -14.54114,15.590046 0,9.685783 5.08372,15.000309 14.42293,15.000309 2.00878,0 3.66446,-0.118099 6.26504,-0.471637 z"
   style="font-variation-settings:normal;mix-blend-mode:normal;fill:#d734d3;fill-opacity:1;stroke:#ffbcdc;stroke-width:10.0006;stroke-linecap:round;stroke-linejoin:round;stroke-miterlimit:4;stroke-dasharray:none;stroke-dashoffset:0;stroke-opacity:1;paint-order:markers stroke fill;stop-color:#000000" /><path
   style="font-size:96.9827px;line-height:1;font-family:Unitblock;-inkscape-font-specification:'Unitblock, Normal';text-align:center;text-anchor:middle;fill:#d734d3;stroke:#ffbcdc;stroke-width:10.0006;stroke-linecap:round;stroke-linejoin:round;stroke-dasharray:none;stroke-opacity:1;paint-order:markers stroke fill"
   d="m 142.51967,175.53049 h 17.91007 v -35.96075 h -17.91007 z m -8.95505,0 v -35.96075 c 0,-2.48264 0.87427,-4.60167 2.62282,-6.35708 1.74854,-1.7554 3.85928,-2.63311 6.33223,-2.63311 h 17.91007 c 2.47295,0 4.58369,0.87771 6.33224,2.63311 1.74854,1.75541 2.62281,3.87444 2.62281,6.35708 v 35.96075 c 0,2.48265 -0.87427,4.60167 -2.62281,6.35708 -1.74855,1.75541 -3.85929,2.63312 -6.33224,2.63312 h -17.91007 c -2.47295,0 -4.58369,-0.87771 -6.33223,-2.63312 -1.74855,-1.75541 -2.62282,-3.87443 -2.62282,-6.35708 z m 80.59537,-22.48174 h -8.95503 v -13.47901 h -17.91009 v 44.95095 h -8.95503 v -53.94114 h 26.86512 c 2.47295,0 4.58369,0.87771 6.33223,2.63311 1.74853,1.75541 2.6228,3.87444 2.6228,6.35708 z m 17.94975,-31.45939 h -8.95505 v -8.99019 h 8.95505 z m -26.86514,53.94113 h 8.95504 v 13.47902 h 8.95505 v -58.42996 h 8.95505 v 58.42996 c 0,2.48264 -0.87428,4.60166 -2.62282,6.35707 -1.74855,1.75541 -3.85929,2.63312 -6.33223,2.63312 h -8.95505 c -2.47294,0 -4.58367,-0.87771 -6.33222,-2.63312 -1.74855,-1.75541 -2.62282,-3.87443 -2.62282,-6.35707 z m 35.82017,0 v -4.50136 h 8.95505 v 4.50136 h 17.91007 v -13.49155 h -17.91007 c -2.47295,0 -4.58369,-0.8777 -6.33223,-2.63311 -1.74855,-1.7554 -2.62282,-3.87443 -2.62282,-6.35708 v -13.47901 c 0,-2.48264 0.87427,-4.60167 2.62282,-6.35708 1.74854,-1.7554 3.85928,-2.63311 6.33223,-2.63311 h 17.91007 c 2.47295,0 4.5837,0.87771 6.33224,2.63311 1.74854,1.75541 2.62282,3.87444 2.62282,6.35708 v 4.48883 h -8.95506 v -4.48883 h -17.91007 v 13.47901 h 17.91007 c 2.47295,0 4.5837,0.8777 6.33224,2.63311 1.74854,1.75541 2.62282,3.87443 2.62282,6.35708 v 13.49155 c 0,2.48265 -0.87428,4.60167 -2.62282,6.35708 -1.74854,1.75541 -3.85929,2.63312 -6.33224,2.63312 h -17.91007 c -2.47295,0 -4.58369,-0.87771 -6.33223,-2.63312 -1.74855,-1.75541 -2.62282,-3.87443 -2.62282,-6.35708 z m 53.73026,0 h 17.91008 v -35.96075 h -17.91008 z m -8.95504,0 v -35.96075 c 0,-2.48264 0.87427,-4.60167 2.62282,-6.35708 1.74854,-1.7554 3.85928,-2.63311 6.33222,-2.63311 h 17.91008 c 2.47295,0 4.58369,0.87771 6.33223,2.63311 1.74854,1.75541 2.62282,3.87444 2.62282,6.35708 v 35.96075 c 0,2.48265 -0.87428,4.60167 -2.62282,6.35708 -1.74854,1.75541 -3.85928,2.63312 -6.33223,2.63312 h -17.91008 c -2.47294,0 -4.58368,-0.87771 -6.33222,-2.63312 -1.74855,-1.75541 -2.62282,-3.87443 -2.62282,-6.35708 z m 80.59539,8.9902 h -8.95505 v -44.95095 h -17.91009 v 44.95095 h -8.95503 v -53.94114 h 26.86512 c 2.47295,0 4.58369,0.87771 6.33224,2.63311 1.74854,1.75541 2.62281,3.87444 2.62281,6.35708 z"
   id="text3"
   aria-label="orjson"
   sodipodi:nodetypes="cccccssssssssssssscccccccsssccccccccccccsssssscscccccssssssssscccccssssssssscccccssssssssssssscccccccsssc" /></svg>
